<?xml version="1.0" standalone="no"?>
<!DOCTYPE svg PUBLIC "-//W3C//DTD SVG 20010904//EN"
 "http://www.w3.org/TR/2001/REC-SVG-20010904/DTD/svg10.dtd">
<svg version="1.0" xmlns="http://www.w3.org/2000/svg"
 width="1386.000000pt" height="969.000000pt" viewBox="0 0 1386.000000 969.000000"
 preserveAspectRatio="xMidYMid meet">

<g transform="translate(0.000000,969.000000) scale(0.100000,-0.100000)"
fill="#000000" stroke="none">
<path d="M685 2954 c-117 -14 -239 -60 -287 -109 -30 -30 -44 -80 -34 -121 6
-22 10 -25 36 -19 l30 7 0 -136 c0 -74 -7 -188 -16 -253 -44 -326 -36 -373 61
-373 51 0 107 30 119 63 10 27 5 41 -36 105 -31 50 -33 137 -9 377 11 116 22
223 23 240 4 36 23 43 136 44 94 1 141 -16 186 -69 35 -43 37 -131 4 -180 -44
-65 -69 -75 -176 -75 -53 0 -100 -4 -104 -10 -15 -20 -8 -93 11 -116 28 -35
124 -33 203 3 260 120 306 468 77 583 -39 20 -167 49 -189 43 -3 0 -18 -3 -35
-4z"/>
<path d="M1450 2950 c-118 -15 -219 -57 -263 -110 -49 -58 -44 -147 7 -134 23
5 24 2 31 -56 8 -72 2 -173 -26 -388 -22 -176 -24 -244 -8 -275 17 -31 28 -37
74 -37 52 0 107 28 123 63 13 27 12 32 -17 73 -57 78 -58 129 -15 534 7 74 14
138 14 141 0 13 133 30 178 23 64 -9 119 -39 143 -77 25 -40 21 -116 -8 -155
-28 -39 -99 -72 -154 -72 -52 0 -99 -14 -111 -33 -14 -22 -8 -58 22 -128 69
-162 179 -307 264 -348 109 -53 213 2 204 108 -3 36 -3 36 -55 38 -28 1 -69 9
-90 19 -44 21 -123 98 -171 167 -30 43 -32 48 -15 53 169 58 263 175 263 327
0 183 -164 295 -390 267z"/>
<path d="M3105 2949 c-184 -27 -323 -181 -313 -346 7 -112 73 -164 283 -224
61 -17 126 -40 147 -50 80 -41 68 -139 -22 -189 -38 -21 -57 -25 -130 -24 -90
1 -141 16 -217 69 -21 14 -45 25 -54 25 -52 0 -74 -108 -32 -166 71 -99 287
-129 437 -61 181 83 271 314 174 449 -24 35 -119 80 -228 109 -168 44 -220 77
-220 140 0 30 7 43 35 67 59 52 170 55 291 6 79 -31 89 -31 130 10 80 80 16
163 -143 186 -37 5 -70 9 -73 9 -3 -1 -32 -5 -65 -10z"/>
<path d="M6974 2950 c-177 -26 -318 -131 -404 -302 -54 -108 -74 -205 -68
-334 4 -94 8 -110 42 -178 39 -80 91 -133 161 -162 171 -71 417 -2 501 141 54
92 12 147 -65 86 -113 -89 -245 -111 -355 -57 -181 89 -210 382 -53 544 65 67
107 85 214 90 87 4 96 3 158 -27 63 -29 68 -30 96 -16 60 32 79 127 34 169
-42 39 -163 60 -261 46z"/>
<path d="M9920 2944 c-75 -32 -84 -59 -50 -154 27 -76 27 -239 1 -343 -47
-183 -157 -317 -260 -317 -43 0 -51 23 -51 138 0 272 -63 566 -129 601 -28 15
-65 5 -101 -29 -37 -34 -39 -70 -6 -113 65 -87 91 -187 75 -288 -26 -160 -157
-309 -271 -309 -44 0 -48 9 -48 110 0 272 -72 577 -156 664 -31 32 -41 36 -85
36 -42 0 -55 -5 -80 -29 -16 -16 -29 -39 -29 -51 0 -12 23 -49 51 -83 56 -67
71 -93 105 -183 37 -98 63 -248 73 -417 11 -179 21 -209 77 -227 112 -37 274
70 375 246 17 30 33 54 35 54 3 0 2 -21 -1 -47 -4 -27 -2 -84 3 -127 14 -106
37 -131 120 -130 79 0 141 31 210 102 74 77 137 188 184 326 48 142 69 263 69
403 0 116 -12 164 -46 177 -22 8 -24 8 -65 -10z"/>
<path d="M10522 2949 c-82 -10 -124 -24 -197 -64 -115 -64 -164 -140 -143
-222 7 -27 13 -33 36 -33 16 0 33 5 40 12 6 6 -4 -24 -23 -67 -64 -147 -73
-337 -22 -448 55 -121 157 -180 312 -179 230 1 406 150 470 397 20 75 22 243
5 316 -51 217 -223 320 -478 288z m202 -189 c36 -14 68 -36 96 -66 63 -69 74
-102 75 -229 0 -99 -3 -116 -27 -167 -51 -109 -155 -177 -277 -181 -119 -3
-212 51 -257 147 -19 41 -24 68 -24 137 0 98 16 163 67 266 33 68 38 74 87 92
71 28 187 28 260 1z"/>
<path d="M11435 2949 c-114 -14 -235 -69 -270 -123 -11 -16 -15 -41 -13 -73 3
-46 4 -48 30 -45 24 2 28 -2 34 -34 9 -50 -3 -265 -21 -384 -8 -52 -18 -138
-21 -190 -6 -88 -5 -97 16 -122 17 -23 30 -28 63 -28 52 0 107 27 126 61 13
24 12 30 -22 85 -36 58 -37 61 -37 164 0 58 9 188 20 290 11 102 20 192 20
201 0 13 16 20 67 29 149 26 259 -24 270 -122 7 -57 -15 -108 -61 -143 -30
-23 -51 -29 -117 -35 -137 -12 -147 -45 -62 -213 82 -164 169 -269 248 -303
83 -34 169 -3 193 71 19 59 7 78 -55 81 -88 4 -176 67 -254 180 -33 48 -36 64
-14 64 9 0 38 11 66 25 117 60 189 167 189 283 0 93 -17 140 -70 193 -74 74
-187 105 -325 88z"/>
<path d="M13020 2949 c-140 -18 -269 -78 -291 -136 -5 -15 -9 -43 -7 -62 3
-32 6 -36 30 -34 26 2 27 -1 33 -63 8 -75 2 -177 -26 -397 -27 -212 -18 -251
69 -289 60 -27 211 -28 298 -3 218 63 359 241 383 482 34 344 -160 544 -489
502z m186 -184 c64 -19 128 -73 162 -139 24 -45 27 -62 26 -151 0 -83 -4 -109
-23 -152 -28 -64 -103 -136 -174 -168 -66 -31 -178 -47 -232 -35 -62 14 -75
37 -75 139 0 72 38 488 46 500 16 22 202 26 270 6z"/>
<path d="M2206 2939 c-55 -4 -113 -13 -128 -20 -36 -15 -57 -55 -65 -120 -6
-47 -5 -49 20 -49 13 0 28 -7 31 -16 13 -34 5 -267 -14 -414 -26 -200 -18
-261 42 -317 50 -47 167 -67 305 -53 158 17 247 65 259 142 5 27 1 40 -18 63
-23 26 -25 27 -54 12 -91 -47 -272 -65 -346 -34 -58 24 -72 55 -70 154 0 47 4
88 7 92 4 3 78 5 166 3 157 -3 159 -3 183 21 28 28 52 97 42 122 -6 16 -24 17
-186 13 l-180 -4 6 110 c3 61 7 117 10 124 2 9 50 12 193 12 l189 0 31 35 c24
27 31 45 31 76 0 33 -4 41 -26 49 -30 12 -284 11 -428 -1z"/>
<path d="M3625 2936 c-16 -7 -40 -25 -53 -38 l-22 -25 24 -54 c27 -58 46 -155
46 -233 0 -34 -9 -67 -31 -111 -37 -77 -38 -132 -1 -127 23 2 23 0 17 -55 -4
-32 -16 -115 -27 -186 -25 -154 -22 -161 58 -155 29 3 64 12 79 22 l27 18 -7
112 c-9 142 -9 256 0 264 4 4 106 8 228 10 144 2 226 7 235 15 11 9 13 4 8
-24 -40 -240 -44 -381 -11 -405 43 -32 149 -8 181 41 19 29 22 19 -37 125 -27
49 -25 158 6 400 14 107 25 235 25 283 0 81 -2 90 -26 114 -21 21 -32 25 -64
20 -22 -3 -53 -15 -70 -27 -35 -25 -38 -49 -14 -125 8 -27 18 -94 21 -147 l6
-98 -159 0 c-87 0 -196 -3 -242 -7 l-83 -6 8 69 c4 38 8 117 8 176 0 93 -3
110 -21 135 -24 32 -64 40 -109 19z"/>
<path d="M5125 2940 c-61 -5 -123 -13 -138 -19 -50 -19 -95 -128 -65 -158 12
-11 25 -11 89 1 40 8 100 17 131 20 l56 6 11 -51 c16 -73 13 -280 -5 -416 -44
-331 -37 -373 57 -373 48 0 82 13 108 41 28 30 26 58 -4 99 -32 44 -45 90 -45
165 0 52 33 408 46 503 l5 34 103 -7 c101 -7 102 -7 134 20 18 15 37 44 44 66
10 34 9 42 -6 57 -14 15 -43 17 -214 18 -108 1 -247 -2 -307 -6z"/>
<path d="M5916 2939 c-55 -4 -113 -14 -129 -20 -35 -15 -66 -76 -67 -131 0
-33 3 -38 24 -38 13 0 27 -7 30 -16 12 -31 6 -267 -10 -367 -9 -56 -17 -142
-18 -192 -1 -79 2 -95 23 -132 44 -77 160 -109 333 -93 141 14 221 49 253 110
21 40 19 65 -7 95 l-23 25 -63 -26 c-112 -45 -284 -49 -341 -6 -38 28 -54 84
-46 164 8 80 2 78 189 70 88 -3 139 -1 153 6 30 17 67 96 59 128 l-7 26 -181
-4 -181 -4 7 65 c3 37 6 92 6 124 l0 57 194 0 194 0 31 35 c24 27 31 45 31 76
0 33 -4 41 -26 49 -30 12 -284 11 -428 -1z"/>
<path d="M7445 2934 c-69 -36 -78 -59 -45 -123 23 -46 40 -142 40 -228 0 -49
-5 -69 -24 -98 -26 -37 -43 -115 -31 -135 4 -6 16 -8 27 -4 20 6 21 4 14 -57
-4 -35 -16 -119 -27 -187 -25 -149 -22 -156 57 -150 29 3 64 12 78 22 l26 17
-6 188 -7 188 33 6 c18 4 121 7 229 7 140 0 200 3 209 12 16 16 16 18 -8 -157
-26 -191 -26 -225 2 -260 19 -25 26 -27 75 -23 93 8 146 69 107 123 -65 90
-67 135 -28 446 34 272 36 358 8 396 -27 36 -70 41 -123 13 -51 -25 -58 -51
-36 -127 10 -32 20 -102 23 -155 l5 -98 -159 0 c-88 0 -197 -3 -243 -7 l-84
-6 6 32 c12 59 20 247 13 295 -12 80 -62 106 -131 70z"/>
<path d="M12068 2929 c-60 -31 -65 -52 -32 -118 27 -53 29 -64 32 -207 3 -113
-1 -188 -17 -300 -12 -82 -21 -165 -21 -185 0 -53 39 -120 82 -142 101 -51
318 -42 440 19 58 30 78 57 78 110 0 62 -15 69 -91 44 -34 -12 -98 -25 -141
-30 -117 -14 -185 2 -209 47 -20 38 -16 201 11 423 25 204 23 309 -6 341 -22
25 -78 24 -126 -2z"/>
</g>
</svg>
