<?xml version="1.0" standalone="no"?>
<!DOCTYPE svg PUBLIC "-//W3C//DTD SVG 20010904//EN"
 "http://www.w3.org/TR/2001/REC-SVG-20010904/DTD/svg10.dtd">
<svg version="1.0" xmlns="http://www.w3.org/2000/svg"
 width="1386.000000pt" height="969.000000pt" viewBox="0 0 1386.000000 969.000000"
 preserveAspectRatio="xMidYMid meet">

<g transform="translate(0.000000,969.000000) scale(0.100000,-0.100000)"
fill="#000000" stroke="none">
<path d="M600 2945 c-36 -8 -94 -29 -130 -47 -79 -41 -112 -84 -108 -143 3
-37 5 -40 33 -40 l30 -1 3 -133 c2 -92 -4 -181 -18 -288 -28 -212 -28 -289 -1
-317 49 -48 191 -3 191 60 0 13 -14 43 -31 67 -43 61 -47 146 -20 392 12 105
21 206 21 226 0 55 18 64 129 64 111 0 160 -19 199 -75 31 -46 31 -134 -1
-180 -39 -59 -79 -75 -187 -75 l-95 0 -3 -46 c-2 -34 2 -52 19 -73 21 -27 26
-28 88 -24 242 13 415 297 304 500 -29 54 -71 89 -140 120 -61 27 -194 33
-283 13z"/>
<path d="M1393 2946 c-171 -39 -260 -119 -237 -212 6 -22 11 -25 35 -22 27 4
28 3 34 -54 8 -70 -1 -205 -26 -397 -31 -235 -24 -292 36 -304 38 -7 107 11
132 34 34 33 34 54 -2 108 -50 78 -51 105 -15 481 18 191 18 193 65 203 65 14
175 4 220 -19 72 -37 93 -114 53 -194 -29 -56 -74 -79 -174 -89 -126 -12 -131
-44 -40 -226 62 -123 132 -215 196 -260 33 -23 56 -30 106 -33 62 -4 65 -3 99
31 30 30 35 42 35 81 l0 46 -50 0 c-67 0 -109 19 -170 76 -52 49 -120 134
-120 151 0 5 25 20 55 32 71 30 149 100 182 165 34 68 42 164 19 234 -21 63
-93 132 -164 157 -65 23 -193 28 -269 11z"/>
<path d="M3062 2945 c-73 -21 -108 -40 -165 -93 -61 -58 -98 -128 -104 -202
-13 -141 58 -204 304 -271 150 -40 197 -84 174 -160 -19 -62 -72 -92 -176 -97
-95 -5 -157 11 -227 58 -60 41 -94 40 -114 -4 -51 -105 61 -211 235 -223 176
-12 333 73 399 216 21 45 26 71 26 131 0 143 -41 179 -283 250 -166 49 -201
73 -201 138 0 76 99 123 218 102 37 -6 91 -22 121 -35 63 -26 97 -20 131 22
44 56 13 122 -75 159 -55 23 -196 28 -263 9z"/>
<path d="M6923 2946 c-145 -37 -290 -157 -356 -296 -72 -154 -88 -352 -37
-485 35 -90 115 -167 204 -194 159 -49 338 -4 442 112 45 51 65 107 47 136
-17 27 -38 23 -81 -13 -66 -54 -126 -79 -209 -84 -90 -6 -148 14 -209 70 -64
59 -88 123 -88 238 0 75 4 107 22 151 30 76 90 142 160 176 50 24 69 28 147
28 79 0 97 -4 142 -28 29 -15 60 -27 69 -27 9 0 31 15 50 34 28 28 34 41 34
78 0 48 -19 73 -75 97 -43 19 -199 23 -262 7z"/>
<path d="M9915 2948 c-39 -21 -65 -52 -65 -75 0 -13 9 -52 21 -86 30 -88 23
-278 -14 -385 -49 -142 -124 -236 -207 -261 -84 -25 -86 -20 -94 214 -11 295
-76 525 -148 525 -46 0 -108 -52 -108 -89 0 -14 16 -48 35 -75 96 -135 91
-308 -13 -457 -42 -61 -116 -115 -169 -125 -64 -12 -67 -4 -75 162 -9 186 -29
316 -68 436 -37 116 -65 166 -110 196 -45 31 -100 25 -141 -14 -40 -39 -37
-65 17 -126 26 -28 62 -84 80 -122 58 -122 104 -344 104 -502 0 -98 16 -166
46 -191 33 -30 94 -30 171 -2 72 28 183 136 231 227 18 34 34 62 35 62 1 0 2
-46 3 -103 1 -125 15 -172 57 -193 44 -23 134 -14 191 20 182 106 336 469 337
789 0 62 -3 122 -7 132 -18 51 -63 69 -109 43z"/>
<path d="M10453 2941 c-115 -31 -214 -92 -253 -157 -29 -45 -31 -121 -4 -141
10 -7 24 -11 31 -8 7 3 20 8 29 11 12 5 9 -6 -11 -46 -88 -174 -85 -423 6
-533 102 -124 302 -152 479 -69 110 53 224 196 260 330 34 130 30 299 -12 410
-29 79 -112 161 -193 191 -86 33 -235 38 -332 12z m294 -187 c110 -56 159
-159 151 -314 -6 -102 -29 -159 -87 -223 -50 -54 -124 -88 -208 -95 -115 -9
-207 35 -259 125 -24 40 -29 61 -32 140 -3 53 1 113 8 140 19 77 85 210 111
224 91 49 224 50 316 3z"/>
<path d="M11385 2946 c-113 -27 -205 -78 -225 -125 -6 -16 -10 -46 -8 -67 3
-35 6 -39 30 -39 25 1 28 -3 34 -44 9 -62 -2 -237 -27 -421 -23 -169 -22 -252
4 -277 11 -11 32 -16 68 -15 57 1 94 21 118 64 13 23 13 28 -5 53 -49 69 -54
87 -54 195 0 58 9 186 20 285 11 99 20 188 20 197 0 25 71 41 160 36 128 -8
185 -57 177 -154 -7 -96 -63 -140 -194 -153 -123 -12 -129 -44 -43 -216 94
-189 195 -294 291 -303 86 -8 130 17 149 87 15 58 6 71 -51 71 -66 0 -108 19
-168 75 -47 44 -129 152 -120 158 2 2 34 18 71 35 81 39 159 120 182 188 22
64 20 168 -3 219 -26 57 -87 112 -151 136 -70 27 -195 33 -275 15z"/>
<path d="M12085 2941 c-22 -10 -49 -28 -59 -39 -19 -21 -18 -23 10 -84 27 -58
29 -74 32 -205 3 -107 -2 -185 -18 -309 -25 -186 -22 -239 17 -284 37 -44 86
-61 189 -67 214 -13 374 55 374 157 0 60 -19 68 -98 41 -92 -32 -254 -41 -301
-17 -40 21 -61 68 -61 138 0 29 11 152 25 273 14 121 25 243 25 270 0 75 -17
124 -46 135 -34 13 -43 12 -89 -9z"/>
<path d="M12981 2949 c-118 -23 -216 -71 -245 -120 -9 -15 -16 -46 -16 -69 0
-41 1 -42 29 -38 l29 4 7 -68 c8 -77 2 -161 -26 -396 -22 -178 -18 -222 23
-259 39 -35 68 -45 147 -50 277 -19 505 146 566 412 19 80 21 229 5 300 -15
66 -66 159 -107 195 -96 85 -258 119 -412 89z m243 -183 c63 -26 113 -73 143
-134 25 -51 28 -67 27 -157 -1 -109 -10 -139 -64 -213 -63 -87 -205 -148 -327
-140 -57 4 -69 8 -89 32 -22 24 -24 37 -24 125 0 53 6 146 14 207 8 60 18 148
22 196 l7 87 51 10 c69 13 193 7 240 -13z"/>
<path d="M2156 2939 c-41 -4 -80 -15 -95 -26 -28 -21 -49 -72 -50 -120 -1 -28
2 -33 23 -33 13 0 27 -7 30 -16 12 -31 6 -276 -10 -377 -23 -149 -23 -263 0
-310 39 -79 138 -113 301 -104 137 8 222 35 269 87 38 42 43 61 26 105 -14 38
-32 40 -107 9 -59 -24 -82 -28 -173 -28 -171 -1 -205 26 -203 166 1 43 4 82 8
88 4 6 68 10 170 10 l163 0 26 30 c30 36 44 96 27 113 -9 9 -62 11 -187 9
l-174 -4 6 119 c4 65 9 120 11 123 3 3 87 5 186 6 100 1 187 2 194 3 7 0 24
18 38 38 27 40 33 91 13 111 -14 14 -376 15 -492 1z"/>
<path d="M3608 2929 c-57 -30 -63 -49 -33 -108 41 -81 61 -285 31 -310 -18
-15 -46 -96 -46 -133 0 -23 4 -28 26 -28 29 0 30 15 -8 -234 -20 -135 -20
-139 -3 -153 23 -16 46 -16 96 -1 70 20 72 27 62 194 -4 81 -7 164 -5 185 l4
37 86 8 c48 4 148 4 223 1 92 -3 141 -1 148 6 6 6 13 9 15 6 2 -2 -4 -67 -15
-144 -34 -257 -25 -299 64 -298 55 1 93 19 120 55 22 30 22 31 -28 113 -33 54
-33 148 1 416 30 242 30 373 0 395 -30 21 -88 17 -127 -9 -40 -27 -42 -49 -16
-169 9 -42 17 -104 17 -136 l0 -59 -147 -7 c-82 -3 -188 -7 -238 -8 l-90 -2 5
84 c16 263 3 320 -68 320 -20 -1 -54 -10 -74 -21z"/>
<path d="M5078 2940 c-106 -8 -145 -38 -162 -125 -11 -56 1 -61 106 -42 52 9
113 17 136 17 37 0 42 -3 49 -27 15 -54 8 -392 -11 -513 -10 -63 -18 -145 -19
-183 -1 -57 2 -71 21 -90 39 -39 154 -18 182 32 16 31 12 47 -21 95 -27 38
-33 56 -37 118 -2 40 1 120 7 178 6 58 16 159 22 225 17 185 2 165 127 165
105 0 109 1 134 28 49 52 59 89 32 116 -13 14 -49 16 -252 14 -130 0 -272 -4
-314 -8z"/>
<path d="M5868 2940 c-103 -10 -134 -38 -145 -130 -6 -48 -5 -50 19 -50 18 0
27 -7 32 -22 12 -48 5 -257 -15 -413 -17 -137 -19 -172 -9 -219 24 -116 91
-151 285 -151 158 1 245 26 299 85 20 22 36 49 36 61 0 27 -28 79 -42 79 -6 0
-41 -12 -77 -27 -56 -23 -81 -27 -171 -27 -171 -1 -206 27 -203 166 0 42 4 81
7 87 5 7 64 11 171 11 l164 0 20 26 c12 15 26 44 33 66 18 62 13 63 -188 60
l-175 -4 7 119 c4 65 9 120 11 123 3 3 87 5 186 6 100 1 187 2 194 3 7 0 24
18 38 38 27 40 33 91 13 111 -13 13 -367 15 -490 2z"/>
<path d="M7423 2925 c-47 -29 -55 -57 -28 -99 22 -33 45 -149 45 -226 0 -52
-6 -76 -30 -124 -17 -32 -30 -74 -30 -92 0 -30 3 -34 26 -34 26 0 26 0 19 -62
-3 -35 -15 -115 -26 -180 -10 -64 -16 -123 -13 -131 13 -35 113 -29 155 9 18
16 19 29 13 205 l-7 187 89 7 c49 4 150 5 225 2 82 -3 142 -1 153 5 16 9 18 7
12 -28 -39 -262 -43 -361 -13 -392 21 -20 95 -19 142 4 49 23 65 57 42 92 -67
106 -70 152 -31 456 45 357 37 426 -49 426 -45 0 -103 -29 -114 -56 -3 -9 4
-55 16 -103 11 -48 21 -119 21 -158 l0 -70 -147 -7 c-82 -3 -188 -7 -238 -8
-90 -2 -90 -2 -88 22 1 14 5 88 8 165 6 124 4 144 -12 175 -15 30 -24 35 -58
38 -29 2 -52 -5 -82 -23z"/>
</g>
</svg>
